<svg t="1760791944480" class="icon" viewBox="0 0 1024 1024" version="1.1" xmlns="http://www.w3.org/2000/svg" p-id="1035" width="32" height="32"><path d="M906.65068 805.328546V218.645868q0-41.924193-29.634964-71.623163-29.69897-29.69897-71.68717-29.698971H218.645868q-41.924193 0-71.623163 29.698971-29.69897 29.69897-29.698971 71.68717v586.618671q0 41.9882 29.698971 71.68717 29.69897 29.634964 71.68717 29.634964h586.618671q41.9882 0 71.68717-29.634964 29.634964-29.69897 29.634964-71.68717zM202.708274 293.341339V218.645868q0-16.0016 16.001601-16.0016h154.895492l-60.422043 90.697071H202.708274z m345.122518 0H415.721579l60.48605-90.633065h132.109213l-60.48605 90.633065z m273.499355 0h-170.897093l60.422043-90.633065h94.473449q16.0016 0 16.001601 16.001601v74.631464z m-602.684279 528.052814q-16.0016 0-16.0016-16.0016V378.597866h618.685879v426.666674q0 16.0016-16.001601 16.0016H218.645868z" p-id="1036"></path><path d="M400.872094 471.727181v237.079711a42.69227 42.69227 0 0 0 64.006402 36.931694l102.666268-59.269928 102.666268-59.269928a42.69227 42.69227 0 0 0 0-73.927394l-102.666268-59.269928-102.666268-59.269928a42.69227 42.69227 0 0 0-64.006402 36.931694zM563.576367 590.139024l-77.319733 44.676468V545.590568l38.659866 22.338234 38.659867 22.274228z" p-id="1037"></path></svg>